# xmcd
#
# Track frame offsets:
#	150
#	17955
#	36654
#	55061
#	67221
#	83804
#	101727
#	112714
#	130088
#	143826
#	156506
#	169941
#
# Disc length: 2432 seconds
#
# Revision: 1
# Processed by: cddbd v1.5.2PL0 Copyright (c) Steve Scherf et al.
# Submitted via: FairStars CD Ripper 2.00
#
DISCID=aa097e0c
DTITLE=Various Artist - Best of Country Favorites [CD1]
DYEAR=2010
DGENRE=Country
TTITLE0=Tanya Tucker Feat. Delbert McClinton - Tell Me About It (Live)
TTITLE1=Asleep at the Wheel - Big Balls in Cow Town
TTITLE2=Juice Newton - Sweetest Thing
TTITLE3=Pam Tillis - When You Walk in the Room
TTITLE4=T. G. Sheppard - Last Cheaters Waltz
TTITLE5=Juice Newton - Break into Me Gently
TTITLE6=Merle Haggard - Silver Wings
TTITLE7=Mickey Gilley - Doo Wah Days
TTITLE8=Janie Frickie - Somebody Else's Fire
TTITLE9=Exile - Gimmie One More Chance
TTITLE10=T. Graham Brown - I Wish I Can Hurt That Way Again
TTITLE11=Holly Dunn - You Reall Had Me Going
EXTD=
EXTT0=
EXTT1=
EXTT2=
EXTT3=
EXTT4=
EXTT5=
EXTT6=
EXTT7=
EXTT8=
EXTT9=
EXTT10=
EXTT11=
PLAYORDER=
